<?xml version="1.0" standalone="no"?>
<!DOCTYPE svg PUBLIC "-//W3C//DTD SVG 20010904//EN"
 "http://www.w3.org/TR/2001/REC-SVG-20010904/DTD/svg10.dtd">
<svg version="1.0" xmlns="http://www.w3.org/2000/svg"
 width="245.000000pt" height="245.000000pt" viewBox="0 0 245.000000 245.000000"
 preserveAspectRatio="xMidYMid meet">
<metadata>
Created by potrace 1.11, written by Peter Selinger 2001-2013
</metadata>
<g transform="translate(0.000000,245.000000) scale(0.100000,-0.100000)"
fill="#000000" stroke="none">
<path d="M1120 2439 c-492 -47 -904 -383 -1049 -854 -40 -132 -52 -215 -52
-360 0 -145 12 -228 52 -360 97 -316 325 -585 617 -730 157 -77 269 -108 457
-125 464 -44 938 233 1158 675 86 174 122 332 122 540 0 162 -15 258 -62 395
-86 251 -262 480 -480 622 -164 108 -309 163 -503 193 -103 16 -131 17 -260 4z
m603 -346 c171 -81 276 -271 277 -500 1 -44 6 -75 15 -87 8 -11 15 -23 15 -27
0 -10 -102 -90 -110 -87 -4 2 -94 96 -199 210 -106 114 -201 210 -211 213 -28
9 -72 -18 -124 -76 l-47 -53 -95 95 -95 96 103 92 c64 57 129 105 173 127 66
33 75 35 150 32 65 -3 93 -9 148 -35z m-210 -649 c130 -139 237 -256 237 -261
0 -4 -23 -31 -51 -59 -49 -49 -53 -51 -85 -42 -22 6 -61 5 -110 -2 l-76 -10
-93 -88 c-52 -48 -223 -208 -381 -357 -158 -148 -301 -280 -318 -292 -33 -26
-53 -28 -109 -12 -70 19 -125 132 -97 197 6 15 36 47 66 72 105 85 279 272
307 329 32 65 34 99 7 151 -28 55 -26 102 6 139 14 17 34 31 44 31 10 0 51
-31 91 -69 l74 -68 106 95 106 96 -169 185 -169 185 48 41 c26 22 77 66 113
97 l65 58 75 -82 c41 -45 182 -196 313 -334z m-466 7 c-1 -7 -25 -33 -53 -57
l-50 -43 -86 97 -86 97 51 53 52 53 87 -93 c48 -51 87 -99 85 -107z"/>
</g>
</svg>
